<?xml version="1.0" encoding="utf-8"?>
<!-- Generator: Adobe Illustrator 17.1.0, SVG Export Plug-In . SVG Version: 6.00 Build 0)  -->
<!DOCTYPE svg PUBLIC "-//W3C//DTD SVG 1.1//EN" "http://www.w3.org/Graphics/SVG/1.1/DTD/svg11.dtd">
<svg version="1.1" id="Layer_1" xmlns="http://www.w3.org/2000/svg" xmlns:xlink="http://www.w3.org/1999/xlink" x="0px" y="0px"
	 viewBox="0 0 612 792" enable-background="new 0 0 612 792" xml:space="preserve">

<style>
	.lobe:hover
    {
        opacity: 0.5;
     }
</style>



<path d="M446.8,460.3c-9,0-18,0.7-26.8-0.3c-5.5-0.6-8.3-0.3-11.3,5.2c-7.2,13-17.3,22.8-33.5,23.5c-1.5,0.1-3,0.4-4.5,0.1
	c-11.7-2.3-23.4-4.7-35.1-7.1c-0.3-0.1-0.6-0.3-1-0.3c-13,0.6-24.7-4.3-36.7-8.2c-6.7-2.2-14.1-1.9-21.1-3.3
	c-5.3-1.1-10.4-3.2-15.6-4.7c-2.8-0.8-5.7-1.7-8.5-1.8c-6.4-0.2-12.9-0.1-19.4,0.2c-2,0.1-4.4,0.6-5.7,1.8
	c-4.5,4.3-9.1,7.7-15.4,9.6c-6.6,1.9-12.2,6.7-18.6,9.3c-5,2-10.5,3.1-15.8,3.8c-3.5,0.5-6.1,1.4-8.5,4.3
	c-6.4,8-14.3,13.4-25.2,12.7c-1.6-0.1-3.3,0.4-4.9,0.7c-9.1,1.4-16.5-4.3-19.4-12.4c-3-8.5-5.4-17.7-5.7-26.6
	c-0.3-9.4,2.2-18.9,3.6-28.3c0.2-1.5,1-2.9,0.9-4.3c-0.4-6.9,1.5-13.1,4.4-19.2c1.4-2.9,1.2-6.5,1.7-9.7c1.3-9.2,5.1-17.1,12.1-23.5
	c1.3-1.2,2.1-3.6,2.1-5.4c0-8,4.3-14.1,9.2-19.4c3.7-4,9.1-6.5,13.6-9.8c2.2-1.6,4.2-3.4,6.2-5.3c0.9-0.9,1.2-2.6,2.2-3.3
	c14.8-11.4,26.4-27,45.2-33.3c5.7-1.9,10.5-6.8,15.8-10c6.4-3.9,13.4-4.6,20.7-4.1c1.9,0.1,4-0.1,5.6-1c10.4-5.5,21.2-7.7,32.8-5.2
	c1.7,0.4,3.6,0.1,5.4,0c4-0.3,7.9-1.2,11.9-1.1c9.9,0.4,19.8,1.1,29.6,2c3.3,0.3,6.6,1,9.7,2.2c8.3,3.2,16.5,6,25.8,6.2
	c11.2,0.3,20.8,6.5,29.9,12.8c2.6,1.8,5.6,2.9,8.3,4.5c5.3,3,10.7,6,15.9,9.2c5.1,3.1,10.1,6.3,15,9.8c5,3.5,9.7,7.4,14.5,11.2
	c1.4,1.1,2.6,3,4.2,3.4c8.7,2.3,12.9,9.5,17.6,16.1s9.1,13.5,12.7,20.7c2.3,4.6,3.1,10,4.5,15c0.6,2.4,0.7,4.9,1.6,7.2
	c3.9,9.8,2.2,19.7,1.1,29.6c-0.2,2-1.7,4.1-3.1,5.6C481.9,453.3,466.1,460.9,446.8,460.3z M343.4,399.8c-1-2-1.6-5.2-3.3-6.2
	c-7.5-4.1-15.6-6.5-24.4-4.6c-2.4,0.5-5.3,0.6-7.7-0.1c-6.6-1.9-13-2.5-19.6-0.4c-1.5,0.5-3.8,0.3-5.1-0.6
	c-4.8-3.3-9.7-5.9-15.8-4.3c-0.7,0.2-1.9,0.1-2.3-0.4c-6.3-7.5-13.8-6.3-21.9-3.6c-4.5,1.5-9,0.6-12.7-3.2c6.8,2.3,13.3,2,20.3-2.6
	c-2.9-2.2-5.3-4-7.6-5.7c8.2-5.8-3.5-6.5-3.3-11.6c4.3,5.5,8.1,1.2,13-0.5c-6.4,7.9-6,14.4,1.1,17.6c7.9,3.5,16.3,5.7,24.7,8.5
	c1-4.9,1.5-8.5,2.5-12c1.5-4.9-0.8-9-5-9.8c0-6.5,0-12.9-0.1-19.2c0-0.5-0.7-1.1-1.2-1.5c-7.1-5.5-14-11.2-21.3-16.3
	c-2.3-1.6-5.6-2.3-8.4-2.3c-12.7,0-22.4,6.5-31,15.1c-4.8,4.8-3,14.5,2.3,17.3c0.2,3.1-0.2,5.8,0.6,8.1c1.5,4.9,3.6,9.7,5.4,14.5
	c0.3,0.9,0.9,1.9,0.7,2.6c-1.2,3.7-2.5,7.3-3.8,11c-0.8-2.2-0.5-4.3-0.3-6.3c0.3-2.4,1.2-5,0.7-7.2c-1.3-5.1-3.2-10.1-5.2-15.1
	c-0.6-1.5-2.3-2.6-2.8-4.1c-1.2-3.8-1.3-8-2.9-11.5c-2.4-5.6-5.6-5.7-9.6-1.4c2.3,4.6,5.1,8.8,6.4,13.5c1.5,5.6,1.7,11.5,2.5,17.2
	c0.2,1.8,0,4.2,1,5.2c4.7,4.8,4.5,10.4,3.8,16.4c-0.1,1,0.7,2.7,1.5,3c6.6,2.7,15.1-0.3,18.8-6.5c0.6-1,1.3-2.1,1.9-3.1
	c0.4,0.2,0.7,0.3,1.1,0.5c-0.7,2-1.4,4-1.9,5.7c6,1.1,11.7,2,17.3,3.2c5.9,1.3,11.7,3.1,17.2,4.6c-0.8,0.6-2.4,1.7-3.9,2.8
	c3,7.5,12.3,11,18.7,6.9c12.7-8.1,25.6-9.6,39.3-2.6c2.2,1.1,4.8,1.4,7.2,1.8c9.1,1.5,18.2,1.7,26.7,6.4c5.2,2.9,11.9,5.5,16.6-2.3
	c0.6,2.4,1.1,4.3,1.6,6.1c-2,0.3-3.9,0.7-5.8,1c0.8-0.5,1.5-0.9,2.3-1.4c3.9,5,7.6,10.2,11.7,15c0.8,1,3.3,0.9,4.9,0.7
	c1.2-0.1,2.3-1.2,3.4-1.8c2.4,2,4.6,3.8,7.9,6.5c-2.3-0.5-3.1-0.5-3.8-0.8c-7.4-3.3-8.3-2.8-9.4,4.9c-0.6,4.6-3.5,7.6-7.5,7.8
	c7-7.1,6.6-10.8,0-18.5c-9-10.4-21.2-14.8-33.6-18.5c-5.9-1.7-12.2-2.1-18.7-3.2c0,4.1,0.4,7-0.1,9.7c-1,5.8-0.8,8.2,1.9,13
	c0.1,0.2-0.2,0.6-0.3,0.9c-13.3-8-26.4-6.6-38.8,1.6c-9.8,6.4-18.9,13.8-29,21.3c2.5,1.4,4.7,2.8,7,3.7c12.8,5.1,23.5,0,27.8-12.8
	c0.6-1.9,2-3.6,3-5.3c0.3,0.1,0.6,0.3,0.9,0.4c-0.9,3.4-1.9,6.9-2.8,10.3c0.4,0.3,0.7,0.5,1.1,0.8c6.7-5.1,14.1-7.4,22.4-6.7
	c2.6,0.2,5.3,0.2,8,0.1c10.2-0.3,14.5-4.6,15.5-14.8c0.3-2.9,1.7-5.8,2.6-8.6c0.4,0.1,0.8,0.3,1.2,0.4c-0.3,3.6-0.5,7.2-0.8,11.9
	c3.9-1.4,6.6-2.3,9.3-3.3c0.2,0.4,0.4,0.9,0.6,1.3c-2.4,1.2-5,2.3-7.2,3.8s-4.2,3.4-6.4,5.3c5.3,2.8,9.3,5.1,13.5,7
	c9.9,4.4,15.5,16,28,16.3c-1.1,0.9-2.3,1.7-3.1,1.4c-4.1-1.6-8.4-3-12.1-5.3c-5.6-3.5-10.6-8.1-16.2-11.6
	c-5.4-3.3-11.1-5.8-17.9-2.7c-2.9,1.3-6.5,1.4-9.8,1.5c-16.8,0.2-25.8,3.2-39.3,14.2c4.1-0.6,8.5,4.1,11.2-2.5
	c6.6,8.5,16.2,10.1,25.8,11.4c3.5,0.5,8.4,0.1,10.5-2c3-3.1-0.8-6.6-2.7-9.6c-0.1-0.1,0-0.3,0-0.7c1.4-0.6,2.8-1.1,4.3-1.7
	c0.6,3.9,1.8,7.6,1.5,11.3c-0.3,3.6,1.2,5.1,4.1,5.5c7.1,1.1,14.3,1.8,22.4,2.8c0.2,0.1,1.4,1.6,2.8,2c8.6,1.9,17.2,1.3,24.7-3.3
	c9.5-5.8,9.3-10.3,4.4-17.6c-1.3-1.9-2.3-4.1-2.9-6.3c-0.4-1.4,0.2-3.1,0.4-4.5c3.1,6.2,6,12,9,17.9c13.8-14.1,13.4-33.7-0.7-46
	c-6.6-5.8-13.4-11.5-20.8-16.4c-7.3-4.8-15.1-9.1-23-12.7C349.7,393.3,346.6,394.8,343.4,399.8z M431.8,425.1
	c0.8,7.5,1.7,8.4,8.5,6.8c5.2-1.2,10.2-3.3,15.1-4.9c0.1,6.9,7.1,1.5,10.2,4.4c-10.8,1.1-21,2.1-31.3,3.1c-0.1,0.6-0.1,1.2-0.2,1.8
	c3.4,0.8,6.9,2.2,10.3,2.2c6,0,11.9-0.7,17.9-1.4c6.2-0.7,12.4-0.8,17.8,2.8c2,1.3,3.6,3.2,6.2,5.5c3-4.3,7.1-7.8,8.2-12
	c1-4.1-1.1-9-1.7-13c0.3,0.1,1.5,0.8,3.4,1.8c1.8-11.8-2-20.9-9.8-29c1.9,1.2,3.9,2.4,6.5,4.1c-0.4-13.7-8.3-21.8-17.4-29.4
	c1.2,0.4,2.5,0.7,4,1.2c-3.8-10.2-16.2-22.9-20.1-21c-0.4,1.3-0.7,2.6-1.1,3.9c-2.4-10.5-10.2-15.3-18.6-19.9
	c-4.5-2.4-8.6-5.6-12.9-8.4c-4.3-2.9-8.6-5.8-12.9-8.6c-0.3,0.3-0.5,0.7-0.8,1c0.8,2.3,1.6,4.5,2.5,6.8c-0.4,0.2-0.8,0.5-1.2,0.7
	c-2.7-8.2-9.7-12-16.1-16.5c-9.8-6.8-20.5-11-32.6-10.8c-5.2,0.1-7,4.1-10.4,7.7c17.9-0.6,34.5,4.9,37.4,11.2
	c-6.7-2.7-13.9-6.6-21.5-8.3c-11.3-2.4-16.7-1.5-20.8,8c-0.1,0.1-0.6,0.1-2.5,0.3c1.9-3.8,3.4-6.9,5-10.2c-8-7.3-18.1-8.6-28.7-8.7
	c10.9-3.6,20.4,0.2,29.5,5.9c0.9-1.3,1.6-2.3,2.1-3.3s0.9-2,1.3-3c-8.4-8.2-29.2-10.7-39.8-4.9c-1.1-5.4-13.6-7.3-19.7-2.8
	c0.9,1.5,2.1,3,2.7,4.6c0.7,1.8,0.9,3.8,1.3,6c0.7,0,1.4,0.1,2,0c11.8-2,16.2,0.2,21.9,10.3c0.6,1.1,1.5,2.2,2.4,3.2
	c4,4.4,8.3,8.4,9.3,14.9c0.7,4.3,6.4,5.4,9.5,3c3.5-2.8,7.4-5.5,11.6-7c4.6-1.6,7.1-4,7.4-8.8c0.1-1,0.3-2.1,0.6-3.9
	c2.5,8.3,0.1,12.7-7.1,14.6c-2.1,0.5-4.3,0.9-6.1,2c-1.5,0.9-3.2,2.7-3.5,4.3c-0.2,0.9,2,2.7,3.5,3.5c6.7,3.3,11.2,8.1,12.4,15.8
	c0.2,1,1.8,2.6,2.8,2.7c7.4,0.2,12.7,4.4,17.9,8.9c8.2,7.1,17.2,11.9,28.7,9.6c2.4-0.5,5-0.2,7.5,0.1c6.9,0.8,11.1-0.7,13.9-6.7
	c1.1-2.5,1.3-6.6-0.1-8.7c-1.4-2.2-5.4-4.2-7.8-3.9c-7.5,1.2-14-0.6-19.6-5.2c-4.1-3.3-8.1-3.6-13-2.4c-10,2.5-19.4-0.8-28.6-4.5
	c2.2-0.5,4.3,0,6.5,0.3c6.6,0.7,13.1,1.5,19.7,1.9c4.1,0.2,6.3-2.3,7.1-6.3c0.4-1.9,1.4-3.7,2.2-5.6c0.5,0,1,0.1,1.6,0.1
	c-3.4,6.6-1.4,11,4.9,13.7c0.1,0.1,0.3,0.2,0.4,0.3c5.3,4.3,11.2,6.4,18.1,5.1c1.5-0.3,3.3,0.1,4.9,0.5c5.9,1.7,7.4,6.7,8.3,12.2
	c1.5-0.3,2.8-0.5,4-0.8c3.2-1,5.1-3.2,4.9-6.7c-0.2-3.7-2.9-4.4-6-4.7c-2.1-0.2-4.3-0.5-6.4-1.1c-2.8-1-6.1-1.6-7-6
	c2.6,1.5,4.5,3.2,6.6,3.5c2.9,0.4,7.5,0.6,8.5-0.9c2.2-3.3-0.8-6-4-7.7c-0.1-0.1,0-0.6,0-0.9c0.3-0.4,0.7-0.7,1-1.1
	c1.9,2.1,5.4,4.2,5.4,6.2c0,4.7,1.8,8.2,4.2,11.7c1.2,1.7,2.8,3.3,4.6,4.3c2.9,1.7,6.1,2.8,9.2,4.2c-5.8,2-11.1-6.7-16.5,0.4
	c1.7,4.7,3.3,9.1,4.9,13.5c-0.4,0.2-0.8,0.4-1.3,0.6c-1.2-2.3-2.7-4.5-3.4-7c-1.6-5.3-4.8-6.9-9.4-3.6c-3.3,2.4-6.2,5.4-8.8,7.7
	c1.1,3.8,2.7,7,2.9,10.4c0.3,3.7,1.1,5.6,5.2,5.1c1.3-0.2,2.8,0.5,4.2,0.8c-16.1,4.3-25.1,15.4-32,29.2c0.3-6.9,3.8-12.1,8.3-16.8
	c3.4-3.5,7.1-6.6,9.9-10.5c5.4-7.5,1.1-16.6-8-17.6c-1.8-0.2-3.6-0.1-5.5,0.1c-9.9,0.9-19.3-0.4-27.2-7.1c-3-2.6-6-5.3-9.3-7.5
	c-8.8-5.8-15.7-8.1-19,6.3c-1.9,8.4-5.5,17.2,1,24.9c3.5,4.2,8.6,7.1,13,10.6c3.6,2.9,6.4,1.5,7.8-2.1c0.8-2.2,0.4-5,0.1-7.5
	c-0.3-2.2-1.1-4.3-1.8-6.5c6.8,8,10.6,9.4,21,6.3c3.4-1,6.7-2.5,10.1-3.7c0.1,0.4,0.3,0.9,0.4,1.3c-7.1,5.9-15.9,6.5-25.4,6.2
	c0.8,1.7,1.4,2.9,2,4.1c-0.6,0.4-0.9,0.7-1.4,0.9c-7.1,3.9-6.9,4.7-0.8,9.8c7.7,6.5,14.9,13.6,22.5,20.2c1.3,1.1,3.1,2.1,4.8,2.4
	C424.2,435.4,426.5,434.2,431.8,425.1z M251.9,301.4c1.3-2.1,2.3-3.9,3.4-5.6c-2-0.9-4-2.3-6.1-2.5c-8.4-0.9-15.7,2.4-22.4,6.9
	c-1.9,1.3-3.1,3.6-5.3,6.2c-13,1.8-23.5,10.5-33.7,19.2c-4.3,3.7-7.9,8.2-12.8,11.5c-2.1,1.4-4.2,3.8-4.8,6.1
	c-0.9,3.2-2.7,4.2-5.4,5c-11,3.7-18,11.6-22.7,21.9c-0.8,1.7,0,4,0,6.1c2.2-0.3,4.4-0.3,6.5-0.9c1.5-0.5,2.7-1.9,4-2.9
	c0.2,0.2,0.4,0.4,0.6,0.7c-1.6,3.5-3.3,6.9-4.9,10.4c-0.3-0.1-0.6-0.2-0.9-0.2c0-1.4,0-2.7,0-4.4c-1.1,0.2-1.7,0.2-2.3,0.3
	c-11.8,3.6-22.3,26-17.5,37.2c0.5,1.3,1.9,2.2,3.4,4c2.1-11.3,9.4-17.3,16.7-23.5c2.9-2.5,6-5.7,7.2-9.2c3.1-9,5.2-18.4,7.7-27.6
	c-0.2-0.4-0.4-0.7-0.5-1.1c-4.4,3.4-8.9,6.8-14.1,10.8c2.6-4.3,4.6-7.6,6.5-10.7c4.9,0,9.5-0.3,12.6-4.9c3.5-5.3,8.3-9.3,14.5-10.7
	c7.8-1.8,15.7-3.1,23.6-4.7c1.7-0.4,3.6-0.9,4.8-2c7.4-7.1,14.7-14.4,24.2-16.4c-2.5-2.7-5.2-5.3-7.3-8.2c-0.4-0.5,1.7-2.7,2.6-4.1
	c-0.7,6.2,0.1,7.4,5.9,8.6c1.5,0.3,3,0.1,4.5,0.5c5.1,1.4,10.3,2.4,15,4.5c4.4,2,8.2,5.3,12.3,8.1c1.4-1.7,2.4-3,4-5
	c-1.2,8.3-0.6,9.7,5.1,12.9c1.7-1.5,3.4-3,4.9-4.4c-1.2,4.5-2.8,8.6-3.2,12.9c-0.3,4.1,0.4,8.3,1.3,12.3c0.3,1.5,2.1,3.5,3.6,3.8
	c2.3,0.4,4.8-0.4,7.7-0.8c-1.1,1.2-1.9,2.5-2.9,3.4c-4.5,3.8-5.7,8.8-5.5,14.4c0.1,5,1.4,6,6.5,5.7c3.8-0.3,7.8-1,11.4-0.2
	c8,1.7,15.7,3.2,22.7-1.5c1.9,1.6,3.9,2.8,5.9,2.8c0.6,0,1.7-3,1.9-4.8c0.5-7.5,0.8-15,1.2-22.5c0.6,0,1.3,0,1.9-0.1
	c0.1,3.6,0.4,7.1,0.3,10.7c-0.1,5-0.6,10-0.5,14.9c0,1.4,1.3,3.3,2.6,4.2c6.4,4.3,13.7,3.8,21.1,4.3c-0.5-3.6-1.4-6.8-1.4-10.1
	c0-3.3,0.4-6.7,1.2-9.9c1.1-4.8,2.5-9.6,4.1-14.4c3.1-9.5,0.5-16.3-8.5-20.6c-3.1-1.5-6.7-2-9.9-3.3c-5.5-2.2-10.9-4.6-16.3-7
	c0.3-0.6,0.5-1.1,0.8-1.7c2.3,1,4.6,1.9,6.8,2.9c0.4-0.3,0.8-0.7,1.3-1c-1.5-2.9-2.8-6.1-4.6-8.8c-2.9-4.2-6-8.3-9.4-12.2
	c-1.8-2-4-4.2-6.5-5c-7.3-2.3-14-1.1-18.9,5.9c0.2-2.1,0.7-4,1.4-5.7c2.7-7,0.5-11.6-6.7-13.8c-10.5-3.2-20.4-0.8-30.1,3.4
	c-1.1,0.5-2,1.5-3,2.3c0.1,0.2,0.2,0.5,0.3,0.7c1-0.2,2.1-0.4,3.3-0.6c-0.8,1.8-1.3,3.2-1.9,4.6c13.1,9.3,26,18.5,39.6,28.2
	c3.8-6.1,6.9-11.2,10-16.2c0.4,0.2,0.8,0.4,1.2,0.6c-1.5,3.3-2.6,7-4.7,10c-4.9,7.2-3.7,11.3,4.2,15.7c5,2.8,9.4,6.7,14.1,10.1
	c-0.4,0.6-0.7,1.2-1.1,1.9c-7.5-5.6-14.6-12.1-25.9-11.2c2.4-1.7,3.7-2.6,5.2-3.7c-2-5.6-6.7-7.8-11-10.6c-6.8-4.4-13.8-8.7-19.9-14
	C265.2,304.3,259.8,300,251.9,301.4z M209.2,454.8c0.4-0.8,0.7-1.6,1.1-2.4c2.4,1,4.7,1.9,7,2.9c17.4,7.6,34.3,9.1,50.4-3.1
	c7.4-5.6,14.5-12,22.7-16.1c6.5-3.3,9.7-6.8,8.3-13.9c0-0.1,0.5-0.3,1.4-0.8c0.6,3.2,1.1,6.2,1.6,9c5.6,0.4,11,0.9,16.5,1.1
	c1.2,0,2.7-0.5,3.5-1.3c5.6-5.8,3.3-16.2-4.2-19.1c-7.6-2.9-15.7-3.4-22.9-0.2c-5.1,2.2-13.2,2.5-12.5,10.9
	c-6.6-3.6-13.4-7.2-19.4-10.4c-1.5-2.6-2.3-5.6-4.1-6.6c-7.8-4.1-16.2-6.3-25-5.1c-8.2,1.1-9.9,4-7.7,12c0.9,3.2,2.5,6.3,3.8,9.4
	c-4.6-3.5-6.4-8.1-7.2-13.5c-0.3-1.9-1.7-4.7-3.2-5.1c-3.1-1-6.7-1.2-8.5,2.9c-3,7.2-8.4,11.1-16.1,12.7c-8.6,1.9-10.4,7.6-10,13.4
	c0.3,5.1,6.8,9.1,13.3,9.1c0.5,0,1,0,1.5,0c8.1,0.2,16.2,0.4,24.3,0.6c14.6,0.4,19.1-2.6,21.8-16.5c0.3-1.6,0.2-3.3,0.4-5
	c0.1-1.1,0.6-2.1,0.9-3.1c1.3,1.5,1.9,3.1,1.6,4.5c-0.8,4.1-1.5,8.2-2.9,12.1c-1.4,3.8-1.7,6.8,1.2,10.1c1.4,1.6,1.7,4.1,2.5,6.2
	c-0.4,0.2-0.9,0.4-1.3,0.5c-1.1-1.8-2.4-3.5-3.3-5.4c-1.6-3.6-3.5-3.8-7.4-2.6c-4.9,1.5-10.4,1.5-15.6,1.5c-5.5,0-10.9-1.5-16.3-1.2
	c-9,0.5-11.4,6.1-6.7,13.6c1.6,2.6,2.7,5.6,4,8.4c-0.5,0.2-1,0.4-1.4,0.7c-2.7-4.8-5.5-9.6-8.9-15.7c-3.4,4.2-6.9,7.4-9,11.3
	c-2,3.8-2.7,8.3-4.1,13c-0.7-2.2-1.4-4.2-2.1-6.3c-7.7-0.3-7.7-0.3-9.4-3.4c9.1,1.6,9.6,1.2,15-6.6c2.1-3.1,5-5.7,7.6-8.5
	c1.4-1.5,2.8-3.1,4-4.3c-4.6-3.7-8.7-7-13.5-10.8c-1.2,1.6-2.7,3.6-4.4,5.6c-1.2,1.5-2.3,3.2-3.9,4.1c-9.5,5.4-14.5,14-17,24.2
	c-0.6,2.3-0.2,5.9,1.2,7.6c4.7,5.4,10,10.1,17.8,10.6c9.8,0.7,18.1-3.8,26.6-7.5c4.2-1.8,7.6-4.2,6.2-9.9c7,5.1,13.7,2.7,18.4-6.6
	C220.2,459.5,214.7,457.1,209.2,454.8z M204.8,387.5c0-8.9,0.6-16.5-0.2-24c-0.7-6.5-2.1-13.3-8.9-16.9c-7.5-3.9-19.1-0.7-25,7
	c-6.5,8.4-9.7,18.2-11.2,28.5c-1.1,7.4-4.6,12.9-10.5,17.4c-4,3.1-7.9,6.7-10.9,10.8c-7,9.6-4.4,23.1,5.3,29.4
	c2.2-5.3,4.3-10.6,6.5-15.9c-2-0.6-3.8-1.1-5.7-1.7c0.5-0.7,0.6-1.1,0.8-1.2c0.4-0.2,1-0.3,1.4-0.2c4.6,1.1,7.9-1.2,11.2-4
	c2.6-2.3,5.8-3.9,8.6-6c1.3-0.9,2.3-2.2,3.5-3.3c2.1-1.7,4-3.8,6.4-4.9c4-1.9,5.8-5,5.2-9.5c-0.6-4.9-1-9.9-0.6-14.8
	c0.6-6.8,2.4-13.5-1.2-20c-0.2-0.4,0.2-1,0.4-2.1c4.9,4.9,4.3,10.3,3.9,15.8c-0.4,6.1-0.7,12.2-0.6,18.3c0.1,3.3,2.3,5.3,5.7,6
	c2,0.4,3.8,1.1,5.8,1.7c-0.1,0.6-0.3,1.2-0.4,1.8c-2.3-0.4-4.5-0.8-6.8-1.3c-4.2-0.9-6.3,1-5.7,5.3c0.1,1,0.2,2,0.2,1.8
	c-3.1,0.2-5.8,0.1-8.2,0.8c-0.7,0.2-0.4,3.3-0.6,5.2c-2.1,0.6-5,1-7.4,2.4c-7.6,4.4-13.8,10.2-17.2,18.8c-3.7,9.3-5.2,18.9-4.4,28.9
	c0.1,1.6,0,3.3,0,4.9c-0.6,0-1.2,0-1.8,0c-0.4-3.9-1.1-7.7-1-11.6c0-8.4,0.2-8.4-7.7-5.9c-0.2,0.1-0.5-0.3-1.7-1.2
	c3.6-1.7,6.7-3.2,9.4-4.5c-5.2-8.3-10.5-16.7-16.2-25.8c-5.8,9.3-3.5,18-3.4,27.5c-1.3-1.6-2-2.4-3.3-4c-0.7,10.5-1.4,20.2-2.1,30.5
	c2.8-0.9,4-1.3,5.3-1.8c-7.8,9,0,16.5,1.1,24.4c1.5-3.9,2.8-7.7,3.8-11.5c0.4-1.7,0.6-3.5,0.6-5.2c-0.4-9.5-1-18.9-1.2-28.3
	c0-2.3,1.3-4.6,2-6.9c1.1,1,1.5,2.1,1.2,2.8c-3.2,8.8-0.6,17.9-0.5,26.8c0,2.9,2.4,5.9,4.1,8.6c0.5,0.8,2.7,1.2,3.6,0.8
	c7.5-3.7,15.6-6.6,17.6-16.6c1.2-6.3,4.4-12,9.4-16.6c5.9-5.3,11.3-10.9,17-16.5c0.9-0.9,2-1.9,2.3-3c1.3-4.6,2.4-9.4,3.5-13.7
	c1.2,4.9,4.9,2.5,8.3,1.1c3.3-1.4,7.1-2.4,9.8-4.6c7-5.7,9-22,3.8-27.9C207.1,384.2,206.3,385.4,204.8,387.5z M413.3,437.3
	c0,4.2,0.7,8.7-0.2,13c-1.1,5.4,1.3,7.2,5.8,7.3c12.3,0.3,24.6,0.3,36.9,0.4c0.6,0,1.2-0.4,1.8-0.6c0.3-3.5,0.6-6.8,0.9-10.2
	c-7.9,0.8-15.2,1.6-23,2.5c-0.2,0.5-0.6,1.8-1.4,4.1c-1.3-3.6-2.3-6.3-3.2-8.7c-4.2,1.1-7.7,2.1-11.3,3.1c-0.1-0.5-0.3-1-0.4-1.4
	c10.2-3.4,11.2-4.6,9.7-11.3C423.6,436.1,418.4,436.7,413.3,437.3z M168.4,488.6c-2.9-3.6-5.2-3.4-8.3-0.9
	c-4.4,3.5-9.3,6.5-13.9,9.6c-0.3-0.4-0.6-0.8-0.9-1.1c5.3-4.1,10.5-8.2,15.8-12.2c-3.2-3.9-5.6-6.8-8.2-9.9
	c-0.9,0.8-1.8,1.8-2.8,2.6c-1.1,0.9-2.4,1.7-3.4,2.4c0.5,1.9,0.8,3.4,1.4,5.4c-5.1-4.1-7.9-4.2-9.6-0.5c-2.3,5-0.7,9.8,1.9,14.2
	c2.4,4.1,6.3,4.6,10.5,3.8C158.7,500.4,164.3,495.7,168.4,488.6z M431.7,437c-0.4,6.2,2.4,9.9,8.4,9.6c7.1-0.3,14.2-1.9,21.1-2.9
	c-0.2,2.5,1.2,6.1-0.8,9.9c-1.2,2.2,1,3.7,3.5,2.5c2-1,4.4-2.1,5.4-3.8c1.5-2.8,1.8-6.1,2.7-9.4c0.6,1.2,1,3.1,2.1,4.3
	c1.1,1.2,2.9,2.2,4.5,2.2c1.1,0.1,3.1-1.4,3.2-2.4c0.1-1.3-0.9-3.1-1.9-4.2c-1.1-1.1-2.7-2.3-4.2-2.4c-5.4-0.4-10.9-0.9-16.3-0.5
	C450.1,440.6,440.8,442.5,431.7,437z M138.5,502.9c-1.3-5.9-2.3-11.2-3.6-16.5c-0.3-1.3-1.5-2.8-2.7-3.3c-0.9-0.4-3.2,0.5-3.5,1.3
	c-1.1,3.2-2.2,6.6-2.2,9.9C126.4,501.5,132.5,505.1,138.5,502.9z"/>
<path fill="#6AE292" d="M368,424.6c1-0.2,2-0.3,3-0.5c-0.2-0.3-0.4-0.6-0.7-0.9C369.5,423.6,368.8,424.1,368,424.6z"/>
<path fill="#6AE292" d="M241.9,380.3"/>
<path fill="#6AE292" d="M242,380.3L242,380.3c-0.1,0-0.1,0-0.1,0S241.9,380.3,242,380.3z"/>
<g class="lobe">
<g class = "temporal" id = "temporal">

	<path fill="#FC8D62" d="M401,471.3c13.8-14.1,13.4-33.7-0.7-46c-6.6-5.8-13.4-11.5-20.8-16.4c-7.3-4.8-15.1-9.1-23-12.7
		c-6.5-2.9-9.6-1.4-12.8,3.6c-1-2-1.6-5.2-3.3-6.2c-7.5-4.1-15.6-6.5-24.4-4.6c-2.4,0.5-5.3,0.6-7.7-0.1c-6.6-1.9-13-2.5-19.6-0.4
		c-1.5,0.5-3.8,0.3-5.1-0.6c-4.8-3.3-9.7-5.9-15.8-4.3c-0.7,0.2-1.9,0.1-2.3-0.4c-6.3-7.5-13.8-6.3-21.9-3.6l-8.9,16.3
		c6,1.1,11.7,2,17.3,3.2c5.9,1.3,11.7,3.1,17.2,4.6c-0.8,0.6-2.4,1.7-3.9,2.8c3,7.5,12.3,11,18.7,6.9c12.7-8.1,25.6-9.6,39.3-2.6
		c2.2,1.1,4.8,1.4,7.2,1.8c9.1,1.5,18.2,1.7,26.7,6.4c5.2,2.9,11.9,5.5,16.6-2.3c0.6,2.4,1.1,4.3,1.6,6.1c-1,0.2-1.9,0.3-2.9,0.5
		c3.6,4.7,7.1,9.6,11,14.1c0.8,1,3.3,0.9,4.9,0.7c1.2-0.1,2.3-1.2,3.4-1.8c2.4,2,4.6,3.8,7.9,6.5c-2.3-0.5-3.1-0.5-3.8-0.8
		c-7.4-3.3-8.3-2.8-9.4,4.9c-0.6,4.6-3.5,7.6-7.5,7.8c7-7.1,6.6-10.8,0-18.5c-9-10.4-21.2-14.8-33.6-18.5
		c-5.9-1.7-12.2-2.1-18.7-3.2c0,4.1,0.4,7-0.1,9.7c-1,5.8-0.8,8.2,1.9,13c0.1,0.2-0.2,0.6-0.3,0.9c-13.3-8-26.4-6.6-38.8,1.6
		c-9.8,6.4-18.9,13.8-29,21.3c2.5,1.4,4.7,2.8,7,3.7c12.8,5.1,23.5,0,27.8-12.8c0.6-1.9,2-3.6,3-5.3c0.3,0.1,0.6,0.3,0.9,0.4
		c-0.9,3.4-1.9,6.9-2.8,10.3c0.4,0.3,0.7,0.5,1.1,0.8c6.7-5.1,14.1-7.4,22.4-6.7c2.6,0.2,5.3,0.2,8,0.1c10.2-0.3,14.5-4.6,15.5-14.8
		c0.3-2.9,1.7-5.8,2.6-8.6c0.4,0.1,0.8,0.3,1.2,0.4c-0.3,3.6-0.5,7.2-0.8,11.9c3.9-1.4,6.6-2.3,9.3-3.3c0.2,0.4,0.4,0.9,0.6,1.3
		c-2.4,1.2-5,2.3-7.2,3.8s-4.2,3.4-6.4,5.3c5.3,2.8,9.3,5.1,13.5,7c9.9,4.4,15.5,16,28,16.3c-1.1,0.9-2.3,1.7-3.1,1.4
		c-4.1-1.6-8.4-3-12.1-5.3c-5.6-3.5-10.6-8.1-16.2-11.6c-5.4-3.3-11.1-5.8-17.9-2.7c-2.9,1.3-6.5,1.4-9.8,1.5
		c-16.8,0.2-25.8,3.2-39.3,14.2c4.1-0.6,8.5,4.1,11.2-2.5c6.6,8.5,16.2,10.1,25.8,11.4c3.5,0.5,8.4,0.1,10.5-2
		c3-3.1-0.8-6.6-2.7-9.6c-0.1-0.1,0-0.3,0-0.7c1.4-0.6,2.8-1.1,4.3-1.7c0.6,3.9,1.8,7.6,1.5,11.3c-0.3,3.6,1.2,5.1,4.1,5.5
		c7.1,1.1,14.3,1.8,22.4,2.8c0.2,0.1,1.4,1.6,2.8,2c8.6,1.9,17.2,1.3,24.7-3.3c9.5-5.8,9.3-10.3,4.4-17.6c-1.3-1.9-2.3-4.1-2.9-6.3
		c-0.4-1.4,0.2-3.1,0.4-4.5C395.1,459.5,398,465.3,401,471.3z"/>
	<path fill="#FC8D62" d="M209.1,454.8c5.5,2.3,11.1,4.7,16.6,7c-4.7,9.3-11.4,11.8-18.4,6.6c1.4,5.8-2,8.1-6.2,9.9
		c-8.5,3.7-16.8,8.2-26.6,7.5c-7.8-0.5-13.1-5.2-17.8-10.6c-1.5-1.7-1.8-5.2-1.2-7.6c2.5-10.2,7.4-18.8,17-24.2
		c1.6-0.9,2.7-2.7,3.9-4.1c1.6-2,3.2-4,4.4-5.6c4.7,3.8,8.9,7.1,13.5,10.8c-1.1,1.2-2.6,2.8-4,4.3c-2.6,2.8-5.5,5.4-7.6,8.5
		c-5.3,7.9-5.9,8.3-15,6.6c1.7,3.1,1.7,3.1,9.4,3.4c0.7,2.1,1.4,4.1,2.1,6.3c1.4-4.7,2.1-9.2,4.1-13c2.1-3.9,5.5-7.1,9-11.3
		c3.5,6.1,6.2,10.9,8.9,15.7c0.5-0.2,1-0.4,1.4-0.7c-1.3-2.8-2.3-5.8-4-8.4c-4.7-7.5-2.3-13.1,6.7-13.6c5.4-0.3,10.9,1.2,16.3,1.2
		c5.2,0,10.7,0,15.6-1.5c3.9-1.2,5.8-0.9,7.4,2.6c0.9,1.9,2.2,3.6,3.3,5.4c0.4-0.2,0.9-0.4,1.3-0.5c-0.8-2.1-1.1-4.6-2.5-6.2
		c-2.9-3.3-2.6-6.3-1.2-10.1c1.4-3.9,2.2-8,2.9-12.1c0.3-1.4-0.3-3-1.6-4.5c-0.3,1-0.7,2.1-0.9,3.1c-0.2,1.6-0.1,3.4-0.4,5
		c-2.7,13.9-7.1,16.9-21.8,16.5c-8.1-0.2-16.2-0.4-24.3-0.6c-0.5,0-1,0-1.5,0c-6.6,0-13-3.9-13.3-9.1c-0.4-5.8,1.4-11.5,10-13.4
		c7.6-1.7,13-5.6,16.1-12.7c1.7-4.1,5.4-3.9,8.5-2.9c1.5,0.5,2.9,3.2,3.2,5.1c0.9,5.3,2.7,10,7.2,13.5c-1.3-3.1-2.9-6.1-3.8-9.4
		c-2.3-8-0.5-10.9,7.7-12c8.8-1.2,17.3,0.9,25,5.1c1.8,1,2.5,4,4.1,6.6c5.9,3.2,12.7,6.8,19.4,10.4c-0.7-8.4,7.4-8.7,12.5-10.9
		c7.3-3.2,15.3-2.8,22.9,0.2c7.5,2.9,9.8,13.2,4.2,19.1c-0.8,0.8-2.3,1.4-3.5,1.3c-5.4-0.2-10.9-0.7-16.5-1.1c-0.5-2.8-1-5.8-1.6-9
		c-0.9,0.5-1.4,0.7-1.4,0.8c1.4,7.1-1.7,10.6-8.3,13.9c-8.2,4.1-15.3,10.5-22.7,16.1c-16.2,12.2-33.1,10.7-50.4,3.1
		c-2.3-1-4.7-1.9-7-2.9C209.8,453.2,209.4,454,209.1,454.8z M207.1,424.3c3.2,2.6,6.1,4.9,9,7.2c0-2.1,0-4.7,0-7.2
		C213,424.3,210.1,424.3,207.1,424.3z"/>
</g>
</g>
<g class="lobe">
<g class="parietal" id = "parietal">
	<path fill="#8DA0CB" d="M252,301.5c7.9-1.3,13.3,2.9,18.9,7.8c6.1,5.2,13.1,9.6,19.9,14c4.3,2.8,9,5,11,10.6
		c-1.5,1.1-2.8,2-5.2,3.7c11.3-0.9,18.4,5.5,25.9,11.2c0.4-0.6,0.7-1.2,1.1-1.9c-4.7-3.4-9-7.4-14.1-10.1c-7.9-4.3-9.1-8.5-4.2-15.7
		c2.1-3,3.1-6.6,4.7-10c-0.4-0.2-0.8-0.4-1.2-0.6c-3.1,5-6.2,10.1-10,16.2c-13.6-9.7-26.5-18.9-39.6-28.2c0.6-1.4,1.2-2.8,1.9-4.6
		c-1.3,0.2-2.3,0.4-3.3,0.6c-0.1-0.2-0.2-0.5-0.3-0.7c1-0.8,1.9-1.8,3-2.3c9.6-4.3,19.6-6.6,30.1-3.4c7.2,2.2,9.4,6.9,6.7,13.8
		c-0.7,1.8-1.2,3.6-1.4,5.7c4.9-7,11.6-8.2,18.9-5.9c2.5,0.8,4.7,2.9,6.5,5c3.4,3.9,6.5,8,9.4,12.2c1.8,2.7,3.1,5.9,4.6,8.8
		c-0.4,0.3-0.8,0.7-1.3,1c-2.3-1-4.6-1.9-6.8-2.9c-0.3,0.6-0.5,1.1-0.8,1.7c5.4,2.3,10.8,4.8,16.3,7c3.2,1.3,6.8,1.8,9.9,3.3
		c9,4.3,11.6,11.1,8.5,20.6c-1.6,4.7-3,9.5-4.1,14.4c-0.7,3.2-1.2,6.6-1.2,9.9c0,3.2,0.9,6.5,1.4,10.1c-7.4-0.4-14.8,0-21.1-4.3
		c-1.3-0.9-2.6-2.7-2.6-4.2c-0.1-5,0.4-9.9,0.5-14.9c0.1-3.6-0.2-7.1-0.3-10.7c-0.6,0-1.3,0-1.9,0.1c-0.4,7.5-0.6,15-1.2,22.5
		c-0.1,1.7-1.3,4.8-1.9,4.8c-2-0.1-4-1.2-5.9-2.8c-7.1,4.7-14.8,3.2-22.7,1.5c-3.6-0.8-7.6-0.1-11.4,0.2c-5.1,0.3-6.4-0.7-6.5-5.7
		c-0.2-5.6,1.1-10.6,5.5-14.4c1.1-0.9,1.9-2.1,2.9-3.4c-2.8,0.4-5.4,1.2-7.7,0.8c-1.4-0.3-3.2-2.3-3.6-3.8c-0.9-4-1.6-8.3-1.3-12.3
		c0.4-4.3,2-8.4,3.2-12.9c-1.6,1.4-3.3,2.9-4.9,4.4c-5.7-3.2-6.3-4.6-5.1-12.9c-1.6,2-2.6,3.3-4,5c-4.1-2.7-7.9-6.1-12.3-8.1
		c-4.7-2.2-10-3.2-15-4.5c-1.4-0.4-3-0.2-4.5-0.5c-5.8-1.2-6.5-2.4-5.9-8.6c-0.9,1.4-3,3.6-2.6,4.1c2.2,3,4.9,5.6,7.3,8.2
		c-9.5,2-16.8,9.3-24.2,16.4c-1.2,1.1-3.1,1.7-4.8,2c-7.8,1.6-15.8,2.9-23.6,4.7c-6.3,1.5-11,5.4-14.5,10.7
		c-3.1,4.6-7.6,4.9-12.6,4.9c-1.9,3.1-3.9,6.5-6.5,10.7c5.2-4,9.6-7.4,14.1-10.8c0.2,0.4,0.4,0.7,0.5,1.1
		c-2.5,9.2-4.6,18.6-7.7,27.6c-1.2,3.5-4.3,6.7-7.2,9.2c-7.3,6.2-14.6,12.2-16.7,23.5c-1.6-1.8-2.9-2.7-3.4-4
		c-4.8-11.3,5.8-33.6,17.5-37.2c0.6-0.2,1.3-0.2,2.3-0.3c0,1.6,0,3,0,4.4c0.3,0.1,0.6,0.2,0.9,0.2c1.6-3.5,3.3-6.9,4.9-10.4
		c-0.2-0.2-0.4-0.4-0.6-0.7c-1.3,1-2.5,2.4-4,2.9c-2,0.7-4.3,0.7-6.5,0.9c0-2-0.8-4.4,0-6.1c4.6-10.2,11.6-18.2,22.7-21.9
		c2.6-0.9,4.5-1.9,5.4-5c0.6-2.3,2.7-4.7,4.8-6.1c4.9-3.3,8.5-7.8,12.8-11.5c10.2-8.7,20.8-17.3,33.7-19.2c2.1-2.6,3.4-4.9,5.3-6.2
		c6.7-4.5,14-7.8,22.4-6.9c2.1,0.2,4,1.7,6.1,2.5C254.4,297.6,253.3,299.3,252,301.5z M203.3,327c4.4-4.9,9-10,14.2-15.9
		c-6.6,3.9-12.5,7.4-19,11.3c2.1,0.1,3.4,0.2,4.9,0.2C203.3,324.6,203.3,326.3,203.3,327z M313.1,379.2c0-5.6,0-11.3,0-16.9
		c-0.5-0.1-1-0.3-1.4-0.4c1.4,8.4-2.4,13.3-10.3,15.8C305.6,379.4,310,372.6,313.1,379.2z"/>
	<path fill="#8DA0CB" d="M250.8,373.7c-2.9-2.2-5.3-4-7.6-5.7c8.2-5.8-3.5-6.5-3.3-11.6c4.3,5.5,8.1,1.2,13-0.5
		c-6.4,7.9-6,14.4,1.1,17.6c7.9,3.5,16.3,5.7,24.7,8.5c1-4.9,1.5-8.5,2.5-12c1.5-4.9-0.8-9-5-9.8c0-6.5,0-12.9-0.1-19.2
		c0-0.5-0.7-1.1-1.2-1.5c-7.1-5.5-14-11.2-21.3-16.3c-2.3-1.6-5.6-2.3-8.4-2.3c-12.7,0-22.4,6.5-31,15.1c-4.8,4.8-3,14.5,2.3,17.3
		c0.2,3.1-0.2,5.8,0.6,8.1c1.5,4.9,3.6,9.7,5.4,14.5c0.3,0.9,0.9,1.9,0.7,2.6c-1.2,3.7-2.5,7.3-3.8,11c-0.8-2.2-0.5-4.3-0.3-6.3
		c0.3-2.4,1.2-5,0.7-7.2c-1.3-5.1-3.2-10.1-5.2-15.1c-0.6-1.5-2.3-2.6-2.8-4.1c-1.2-3.8-1.3-8-2.9-11.5c-2.4-5.6-5.6-5.7-9.6-1.4
		c2.3,4.6,5.1,8.8,6.4,13.5c1.5,5.6,1.7,11.5,2.5,17.2c0.2,1.8,0,4.2,1,5.2c4.7,4.8,4.5,10.4,3.8,16.4c-0.1,1,0.7,2.7,1.5,3
		c6.6,2.7,15.1-0.3,18.8-6.5c0.6-1,1.3-2.1,1.9-3.1l-4.6-13.3C237.3,378.5,243.7,378.2,250.8,373.7z M227.1,360.3
		c-3.3-4.6-2.1-11.3,4.7-23.7c0.2,4.8,0.4,8.5,0.6,12.4c-0.6-0.2-1.7-0.6-3.8-1.5C228.1,352.1,227.6,356.4,227.1,360.3z"/>
	<path fill="#8DA0CB" d="M208.1,383.5c-0.8,1.2-1.6,2.3-3.1,4.4c0-8.9,0.6-16.6-0.4-24.3c-0.7-6.5-2-13.3-8.9-16.9
		c-7.4-3.9-19-0.7-25,7c-6.5,8.4-9.7,18.2-11.2,28.5c-1.1,7.4-4.6,12.9-10.5,17.4c-4,3.1-7.9,6.7-10.9,10.8
		c-7.1,9.6-4.4,23.1,5.3,29.4c2.2-5.3,4.3-10.6,6.5-15.9c-2-0.6-3.7-1.1-5.7-1.7c0.4-0.7,0.6-1.1,0.8-1.2c0.4-0.1,1-0.3,1.4-0.2
		c4.6,1.1,7.9-1.2,11.2-4c2.7-2.3,5.8-3.9,8.6-6c1.3-1,2.3-2.3,3.5-3.3c2-1.7,4-3.8,6.4-4.9c4-1.9,5.7-5,5.2-9.5
		c-0.6-4.9-1-9.9-0.6-14.8c0.6-6.8,2.3-13.5-1.2-20c-0.2-0.4,0.2-1,0.4-2.1c4.9,4.9,4.3,10.3,3.9,15.8c-0.5,6.1-0.7,12.2-0.6,18.3
		c0,3.4,2.3,5.3,5.7,6c2,0.4,3.9,1.1,5.8,1.7c-0.1,0.6-0.3,1.2-0.4,1.8c-2.3-0.4-4.6-0.8-6.8-1.3c-4.2-0.9-6.3,1-5.7,5.3
		c0.1,0.8,0.2,1.7,0.2,1.8c0,0,0,0,0,0c0,0,0,0,0,0c-3.1,0.2-5.8,0-8.2,0.8c-0.7,0.2-0.4,3.2-0.6,5.2c-2.1,0.7-5,1-7.4,2.4
		c-7.6,4.5-13.8,10.3-17.2,18.8c-1.6,3.9-2.7,7.7-3.5,11.7c2.6,5.8,5.7,11.5,10.1,15.8c1.6-4.6,4.3-8.7,8.2-12.1
		c5.9-5.3,11.4-11,17-16.5c0.9-0.9,2-1.9,2.3-3c1.4-4.6,2.4-9.4,3.5-13.7c1.2,4.9,5,2.5,8.3,1.1c3.4-1.3,7.1-2.4,9.8-4.6
		C211.3,405.7,213.3,389.4,208.1,383.5z"/>
</g>
</g>
<path fill="#FFFFFF" d="M247.3,529.2C247.3,529.2,247.3,529.2,247.3,529.2C247.3,529.2,247.3,529.2,247.3,529.2z"/>
<g class="lobe">
<g class="frontal" id = "frontal">
	<path fill="#E78AC3" d="M431.8,425.1c-5.3,9.1-7.7,10.2-17.8,8.5c-1.7-0.3-3.5-1.2-4.8-2.4c-7.6-6.7-14.8-13.8-22.5-20.2
		c-6.2-5.2-6.3-6,0.8-9.8c0.4-0.2,0.8-0.5,1.4-0.9c-0.6-1.2-1.2-2.4-2-4.1c9.5,0.3,18.3-0.3,25.4-6.2c-0.1-0.4-0.3-0.9-0.4-1.3
		c-3.3,1.3-6.6,2.7-10.1,3.7c-10.4,3.1-14.3,1.7-21-6.3c0.6,2.2,1.5,4.3,1.8,6.5c0.3,2.5,0.7,5.3-0.1,7.5c-1.4,3.6-4.2,5-7.8,2.1
		c-4.4-3.5-9.5-6.4-13-10.6c-6.5-7.7-2.9-16.5-1-24.9c3.3-14.4,10.2-12.1,19-6.3c3.3,2.2,6.3,4.9,9.3,7.5c8,6.7,17.3,8,27.2,7.1
		c1.8-0.2,3.7-0.3,5.5-0.1c9.1,0.9,13.4,10,8,17.6c-2.8,3.9-6.6,7-9.9,10.5c-4.6,4.7-8,9.9-8.3,16.8c6.8-13.8,15.8-25,32-29.2
		c-1.4-0.3-2.8-0.9-4.2-0.8c-4.1,0.5-5-1.4-5.2-5.1c-0.2-3.3-1.8-6.6-2.9-10.4c2.6-2.3,5.5-5.3,8.8-7.7c4.6-3.3,7.8-1.8,9.4,3.6
		c0.7,2.5,2.2,4.7,3.4,7c0.4-0.2,0.8-0.4,1.3-0.6c-1.6-4.4-3.2-8.7-4.9-13.5c5.4-7,10.7,1.6,16.5-0.4c-3.1-1.4-6.3-2.5-9.2-4.2
		c-1.8-1-3.4-2.6-4.6-4.3c-2.4-3.5-4.2-7-4.2-11.7c0-2.1-3.5-4.2-5.4-6.2c-0.3,0.4-0.7,0.7-1,1.1c0,0.3-0.1,0.8,0,0.9
		c3.2,1.7,6.2,4.4,4,7.7c-1,1.6-5.6,1.3-8.5,0.9c-2.1-0.3-4-2-6.6-3.5c0.9,4.5,4.2,5.1,7,6c2,0.7,4.2,0.9,6.4,1.1c3,0.3,5.7,1,6,4.7
		c0.2,3.5-1.7,5.6-4.9,6.7c-1.2,0.4-2.5,0.5-4,0.8c-0.9-5.6-2.4-10.5-8.3-12.2c-1.5-0.5-3.3-0.8-4.9-0.5c-6.9,1.3-12.8-0.7-18.1-5.1
		c-0.1-0.1-0.2-0.3-0.4-0.3c-6.4-2.6-8.3-7-4.9-13.7c-0.5,0-1-0.1-1.6-0.1c-0.7,1.9-1.7,3.7-2.2,5.6c-0.9,4-3,6.5-7.1,6.3
		c-6.6-0.4-13.1-1.2-19.7-1.9c-2.1-0.2-4.2-0.7-6.5-0.3c9.2,3.7,18.6,6.9,28.6,4.5c4.9-1.2,8.9-0.9,13,2.4
		c5.6,4.6,12.1,6.3,19.6,5.2c2.5-0.4,6.4,1.7,7.8,3.9c1.4,2.1,1.2,6.2,0.1,8.7c-2.8,6-7,7.5-13.9,6.7c-2.5-0.3-5.1-0.6-7.5-0.1
		c-11.5,2.3-20.5-2.5-28.7-9.6c-5.2-4.5-10.5-8.8-17.9-8.9c-1,0-2.6-1.6-2.8-2.7c-1.1-7.7-5.7-12.5-12.4-15.8
		c-1.5-0.7-3.7-2.5-3.5-3.5c0.3-1.6,1.9-3.3,3.5-4.3c1.8-1.1,4-1.5,6.1-2c7.3-1.8,9.7-6.3,7.1-14.6c-0.3,1.8-0.5,2.8-0.6,3.9
		c-0.3,4.8-2.7,7.2-7.4,8.8c-4.2,1.4-8.1,4.2-11.6,7c-3.1,2.4-8.7,1.3-9.5-3c-1.1-6.5-5.3-10.5-9.3-14.9c-0.9-1-1.7-2-2.4-3.2
		c-5.7-10.1-10.1-12.3-21.9-10.3c-0.6,0.1-1.3,0-2,0c-0.4-2.1-0.6-4.1-1.3-6c-0.6-1.7-1.8-3.1-2.7-4.6c6.1-4.5,18.6-2.6,19.7,2.8
		c10.7-5.8,31.4-3.3,39.8,4.9c-0.4,0.9-0.7,2-1.3,3c-0.5,1-1.2,1.9-2.1,3.3c-9.1-5.6-18.6-9.5-29.5-5.9c10.6,0.1,20.7,1.4,28.7,8.7
		c-1.6,3.3-3.1,6.4-5,10.2c1.9-0.3,2.4-0.2,2.5-0.3c4-9.4,9.5-10.4,20.8-8c7.6,1.6,14.8,5.6,21.5,8.3c-3-6.3-19.5-11.8-37.4-11.2
		c3.4-3.6,5.3-7.6,10.4-7.7c12.1-0.2,22.8,3.9,32.6,10.8c6.4,4.4,13.4,8.2,16.1,16.5c0.4-0.2,0.8-0.5,1.2-0.7
		c-0.8-2.3-1.6-4.5-2.5-6.8c0.3-0.3,0.5-0.7,0.8-1c4.3,2.9,8.6,5.8,12.9,8.6c4.3,2.8,8.4,6,12.9,8.4c8.3,4.5,16.1,9.4,18.6,19.9
		c0.4-1.3,0.7-2.6,1.1-3.9c3.9-1.9,16.3,10.8,20.1,21c-1.5-0.5-2.8-0.8-4-1.2c9.1,7.7,17,15.8,17.4,29.4c-2.6-1.6-4.5-2.9-6.5-4.1
		c7.8,8.1,11.6,17.2,9.8,29c-1.9-1-3.1-1.6-3.4-1.8c0.7,4,2.8,8.9,1.7,13c-1.1,4.3-5.1,7.8-8.2,12c-2.6-2.3-4.2-4.2-6.2-5.5
		c-5.5-3.6-11.6-3.5-17.8-2.8c-5.9,0.7-11.9,1.4-17.9,1.4c-3.4,0-6.9-1.4-10.3-2.2c0.1-0.6,0.1-1.2,0.2-1.8c10.3-1,20.5-2,31.3-3.1
		c-3.2-2.9-10.1,2.5-10.2-4.4c-4.9,1.6-9.9,3.7-15.1,4.9C433.5,433.5,432.6,432.6,431.8,425.1z M474.9,385c2.2-0.3,4.4-0.5,7.6-0.9
		c-5.3-1.6-9.2-2.9-13.1-4c-2.4-0.6-4.9-1.6-7.2-1.2c-1.7,0.2-4.1,2.2-4.3,3.7c-0.3,1.7,1.5,3.6,2.4,5.5c0.7-2.4,0-5.1,0.8-5.6
		c1.5-0.9,3.8-1.1,5.6-0.6C469.5,382.4,472.2,383.9,474.9,385c0.2,1,0.1,2.1,0.4,3.1c1.5,4.4,3.1,8.7,4.7,13c-3.3-1.1-7-3.7-9.8-2.9
		c-3.2,0.9-5.9,4.6-8.4,7.4c-4.4,4.9-8.8,9.5-16.1,9.7c-1.2,0-2.3,0.9-3.5,1.4c0.2,0.4,0.3,0.9,0.5,1.3c6.4,0.6,11.8-1.5,16.4-6
		c2.6-2.6,4.9-5.4,7.5-8c4-4.1,8.7-4,12.8,0.2c5.2,5.2,5.6,12.6,1.1,18.5c-0.6,0.8-0.9,1.7-1.3,2.6c0.3,0.2,0.6,0.4,0.9,0.6
		c1.8-2.1,3.6-4.1,5.9-6.8c0.4,3.6,0.8,6.5,1.2,9.5c0.5-0.1,0.9-0.3,1.4-0.4c0-9.8-2.2-19-8.8-26.9c0.5-1.5,1.7-3.4,1.2-4.6
		C479.4,392.4,477,388.8,474.9,385z M400.7,327.1c5-3.1,8.9-1.3,12.8,1.4c5.2,3.5,10.5,6.9,15.9,10.2c1.5,0.9,3.6,1,5.4,1.5
		c0.1-0.4,0.2-0.8,0.3-1.3c-13-4.8-22.1-17.5-37.4-17.1C398.4,323,399.3,324.7,400.7,327.1z M382.2,321.8c-1.8,4.9-3.5,9.6-5.2,14.3
		C381.9,334.1,384.1,328.3,382.2,321.8z"/>
	<path fill="#E78AC3" d="M413.3,437.3c5.1-0.6,10.3-1.2,15.6-1.9c1.5,6.7,0.5,7.9-9.7,11.3c0.1,0.5,0.3,1,0.4,1.4
		c3.6-1,7.1-1.9,11.3-3.1c0.9,2.4,1.9,5.1,3.2,8.7c0.8-2.2,1.2-3.5,1.4-4.1c7.8-0.8,15.1-1.6,23-2.5c-0.3,3.3-0.6,6.7-0.9,10.2
		c-0.6,0.2-1.2,0.6-1.8,0.6c-12.3-0.1-24.6-0.1-36.9-0.4c-4.5-0.1-6.9-1.9-5.8-7.3C414,446.1,413.3,441.5,413.3,437.3z"/>
	<path fill="#E78AC3" d="M431.7,437c9.1,5.5,18.4,3.6,27.7,3c5.4-0.3,10.9,0.1,16.3,0.5c1.5,0.1,3.1,1.3,4.2,2.4
		c1,1.1,2,2.8,1.9,4.2c-0.1,1-2.1,2.5-3.2,2.4c-1.6-0.1-3.4-1.1-4.5-2.2c-1.1-1.2-1.5-3-2.1-4.3c-0.9,3.2-1.2,6.6-2.7,9.4
		c-0.9,1.8-3.4,2.9-5.4,3.8c-2.5,1.2-4.7-0.3-3.5-2.5c2-3.8,0.6-7.4,0.8-9.9c-6.9,1-13.9,2.6-21.1,2.9
		C434.1,446.9,431.3,443.2,431.7,437z"/>
</g>
</g>
<g class="lobe">
<g class = "occipital" id = "occipital">
	<path fill="#66C2A5" d="M144.2,461.7c0.1,1.6,0,3.3,0,4.9c-0.6,0-1.2,0-1.8,0c-0.3-3.9-1-7.7-1-11.6c0.1-8.4,0.2-8.4-7.7-5.9
		c-0.2,0-0.5-0.3-1.7-1.2c3.6-1.8,6.7-3.2,9.4-4.5c-5.2-8.3-10.5-16.7-16.2-25.8c-5.8,9.3-3.5,18-3.4,27.5c-1.3-1.6-2-2.4-3.3-4
		c-0.7,10.6-1.4,20.2-2.1,30.5c2.8-1,4-1.4,5.3-1.8c-7.8,9,0.1,16.5,1.1,24.4c1.5-3.9,2.8-7.7,3.8-11.5c0.5-1.7,0.7-3.5,0.6-5.2
		c-0.4-9.4-1-18.8-1.2-28.3c0-2.3,1.3-4.6,2-6.9c1,1,1.5,2,1.2,2.8c-3.1,8.9-0.6,17.9-0.5,26.8c0,2.9,2.4,5.9,4.1,8.6
		c0.5,0.8,2.7,1.2,3.6,0.8c7.6-3.6,15.6-6.6,17.6-16.6c0.3-1.5,0.7-3,1.2-4.5c-4.4-4.3-7.4-10-10.1-15.8
		C144,450.1,143.7,455.8,144.2,461.7z"/>
	<path fill="#66C2A5" d="M168.6,488.6c-4.1,7.1-9.7,11.8-17.7,13.4c-4.2,0.8-8.1,0.3-10.5-3.8c-2.6-4.4-4.2-9.2-1.9-14.2
		c1.7-3.7,4.5-3.6,9.6,0.5c-0.5-2-0.9-3.5-1.4-5.4c1.1-0.8,2.3-1.5,3.4-2.4c1-0.8,1.9-1.8,2.8-2.6c2.6,3.2,5,6.1,8.2,9.9
		c-5.2,4-10.5,8.1-15.8,12.2c0.3,0.4,0.6,0.8,0.9,1.1c4.7-3.2,9.6-6.1,13.9-9.6C163.4,485.2,165.8,485,168.6,488.6z"/>
	<path fill="#66C2A5" d="M138.5,502.9c-6,2.2-12.1-1.4-12.1-8.6c0-3.3,1.1-6.7,2.2-9.9c0.3-0.8,2.6-1.6,3.5-1.3
		c1.2,0.5,2.4,2,2.7,3.3C136.2,491.7,137.2,497,138.5,502.9z"/>
</g>
</g>
<path d="M232,336.8c0.2,4.8,0.4,8.5,0.6,12.4c-0.6-0.2-1.7-0.6-3.8-1.5c-0.5,4.6-1,8.8-1.5,12.8C224,355.9,225.1,349.2,232,336.8z"
	/>
<path d="M479.9,401c6.6,7.9,8.8,17.1,8.8,26.9c-0.5,0.1-0.9,0.3-1.4,0.4c-0.4-2.9-0.7-5.9-1.2-9.5c-2.3,2.7-4.1,4.8-5.9,6.8
	c-0.3-0.2-0.6-0.4-0.9-0.6c0.4-0.9,0.7-1.8,1.3-2.6c4.5-6,4-13.3-1.1-18.5c-4.1-4.1-8.8-4.3-12.8-0.2c-2.6,2.6-4.9,5.4-7.5,8
	c-4.6,4.5-10.1,6.6-16.4,6c-0.2-0.4-0.3-0.9-0.5-1.3c1.2-0.5,2.3-1.3,3.5-1.4c7.3-0.2,11.7-4.7,16.1-9.7c2.5-2.8,5.1-6.5,8.4-7.4
	C473,397.3,476.7,399.9,479.9,401C480,401,479.9,401,479.9,401z"/>
<path d="M400.7,327.1c-1.3-2.4-2.3-4.1-3-5.4c15.3-0.4,24.5,12.3,37.4,17.1c-0.1,0.4-0.2,0.8-0.3,1.3c-1.8-0.5-3.9-0.5-5.4-1.5
	c-5.4-3.2-10.7-6.6-15.9-10.2C409.6,325.8,405.6,324,400.7,327.1z"/>
<path d="M474.9,385c-2.8-1.1-5.5-2.5-8.3-3.3c-1.8-0.4-4.1-0.3-5.6,0.6c-0.8,0.5-0.1,3.1-0.8,5.6c-0.9-1.8-2.7-3.8-2.4-5.5
	c0.2-1.5,2.6-3.4,4.3-3.7c2.3-0.3,4.9,0.6,7.2,1.2c3.9,1.1,7.8,2.4,13.1,4C479.3,384.4,477.1,384.7,474.9,385L474.9,385z"/>
<path d="M382.2,321.8c2,6.5-0.3,12.3-5.2,14.3C378.7,331.4,380.4,326.7,382.2,321.8z"/>
<path d="M474.9,385c2.1,3.8,4.5,7.5,6.3,11.5c0.5,1.1-0.8,3-1.2,4.6h0.1c-1.6-4.3-3.2-8.7-4.7-13C475,387.1,475.1,386,474.9,385
	L474.9,385z"/>
<path d="M203.2,326.9c0-0.8,0-2.4,0-4.4c-1.5-0.1-2.7-0.1-4.9-0.2c6.6-3.9,12.4-7.3,19-11.3C212.2,316.9,207.6,322.1,203.2,326.9z"
	/>
<path d="M313,379.1c-3.1-6.6-7.5,0.2-11.7-1.5c7.8-2.5,11.7-7.5,10.3-15.8c0.5,0.1,1,0.3,1.4,0.4C313,367.8,313,373.4,313,379.1z"/>
<path d="M207.2,424.3c3,0,5.8,0,9,0c0,2.6,0,5.1,0,7.2C213.4,429.3,210.4,426.9,207.2,424.3z"/>

<text id="demo" x="150" y="200" 
        font-family="Verdana" font-size="40" opacity="0.8">
</text>

			<script>
			var svgElement = document.getElementById("temporal");
			svgElement.addEventListener("mouseover", hprint);
			svgElement.addEventListener("mouseout", nullprint);
			
			var svgElement = document.getElementById("parietal");
			svgElement.addEventListener("mouseover", parprint);
			svgElement.addEventListener("mouseout", nullprint);
			
			var svgElement = document.getElementById("frontal");
			svgElement.addEventListener("mouseover", froprint);
			svgElement.addEventListener("mouseout", nullprint);
			
			var svgElement = document.getElementById("occipital");
			svgElement.addEventListener("mouseover", occprint);
			svgElement.addEventListener("mouseout", nullprint);

			function hprint() {
				document.getElementById("demo").innerHTML = "Temporal lobe";
			}
			
			function parprint() {
				document.getElementById("demo").innerHTML = "Parietal lobe";
			}
			
			function froprint() {
				document.getElementById("demo").innerHTML = "Frontal lobe";
			}
			
			function occprint() {
				document.getElementById("demo").innerHTML = "Occipital lobe";
			}
			
			function nullprint() {
				document.getElementById("demo").innerHTML = "";
			}
			
		</script>

</svg>
